<svg xmlns="http://www.w3.org/2000/svg" xmlns:xlink="http://www.w3.org/1999/xlink" width="1080" zoomAndPan="magnify" viewBox="0 0 810 809.999993" height="1080" preserveAspectRatio="xMidYMid meet" version="1.0"><defs><clipPath id="4a8ca7bc6c"><path d="M 162 278 L 648 278 L 648 533 L 162 533 Z M 162 278 " clip-rule="nonzero"/></clipPath></defs><rect x="-81" width="972" fill="#ffffff" y="-80.999999" height="971.999992" fill-opacity="1"/><rect x="-81" width="972" fill="#e1eaff" y="-80.999999" height="971.999992" fill-opacity="1"/><g clip-path="url(#4a8ca7bc6c)"><path fill="#4645ff" d="M 479.585938 405.304688 C 479.648438 395.351562 477.789062 385.769531 474.007812 376.5625 C 472.183594 371.960938 469.90625 367.597656 467.183594 363.46875 C 464.457031 359.339844 461.339844 355.53125 457.828125 352.046875 C 450.820312 345.070312 442.773438 339.636719 433.683594 335.746094 C 429.183594 333.882812 424.546875 332.476562 419.773438 331.527344 C 414.996094 330.578125 410.175781 330.105469 405.304688 330.105469 C 400.4375 330.105469 395.617188 330.578125 390.839844 331.527344 C 386.066406 332.476562 381.429688 333.882812 376.929688 335.746094 C 367.785156 339.550781 359.734375 344.984375 352.785156 352.046875 L 352.234375 352.535156 C 350.953125 353.84375 349.726562 355.195312 348.546875 356.59375 C 347.367188 357.992188 346.242188 359.429688 345.167969 360.910156 C 344.09375 362.386719 343.074219 363.90625 342.109375 365.457031 C 341.148438 367.011719 340.242188 368.597656 339.394531 370.21875 C 338.546875 371.839844 337.757812 373.488281 337.03125 375.164062 C 336.304688 376.84375 335.640625 378.546875 335.039062 380.269531 C 334.433594 381.996094 333.894531 383.742188 333.421875 385.507812 C 332.945312 387.273438 332.535156 389.054688 332.191406 390.851562 C 331.84375 392.644531 331.566406 394.453125 331.355469 396.265625 C 331.140625 398.082031 330.992188 399.90625 330.914062 401.730469 C 330.832031 403.558594 330.820312 405.382812 330.875 407.210938 C 330.925781 409.039062 331.046875 410.863281 331.234375 412.679688 C 331.421875 414.5 331.671875 416.308594 331.992188 418.109375 C 332.3125 419.910156 332.695312 421.695312 333.144531 423.46875 C 333.59375 425.242188 334.105469 426.996094 334.683594 428.730469 C 335.261719 430.464844 335.902344 432.175781 336.605469 433.863281 C 338.4375 438.457031 340.71875 442.820312 343.441406 446.945312 C 346.167969 451.074219 349.28125 454.886719 352.785156 458.378906 C 359.734375 465.4375 367.785156 470.871094 376.929688 474.679688 C 378.613281 475.386719 380.324219 476.027344 382.054688 476.605469 C 383.789062 477.183594 385.539062 477.699219 387.308594 478.144531 C 389.078125 478.59375 390.863281 478.976562 392.664062 479.292969 C 394.460938 479.605469 396.269531 479.855469 398.085938 480.035156 C 399.902344 480.214844 401.726562 480.328125 403.550781 480.371094 C 405.375 480.417969 407.199219 480.394531 409.023438 480.304688 C 410.847656 480.210938 412.667969 480.054688 414.480469 479.828125 C 416.289062 479.601562 418.089844 479.304688 419.882812 478.945312 C 421.671875 478.585938 423.445312 478.15625 425.203125 477.664062 C 426.964844 477.171875 428.699219 476.613281 430.417969 475.992188 C 432.132812 475.371094 433.824219 474.683594 435.492188 473.9375 C 437.15625 473.1875 438.792969 472.378906 440.398438 471.507812 C 442.003906 470.636719 443.574219 469.710938 445.109375 468.722656 C 446.648438 467.734375 448.144531 466.691406 449.601562 465.59375 C 451.0625 464.496094 452.476562 463.34375 453.851562 462.140625 C 455.222656 460.933594 456.550781 459.679688 457.828125 458.378906 C 461.332031 454.886719 464.445312 451.074219 467.171875 446.949219 C 469.894531 442.820312 472.175781 438.457031 474.007812 433.863281 C 477.765625 424.714844 479.625 415.195312 479.585938 405.304688 Z M 491.105469 369.574219 C 491.980469 371.695312 492.773438 373.84375 493.488281 376.019531 C 494.203125 378.199219 494.835938 380.402344 495.390625 382.625 C 495.941406 384.851562 496.414062 387.089844 496.800781 389.351562 C 497.191406 391.609375 497.496094 393.878906 497.71875 396.160156 C 497.941406 398.445312 498.078125 400.730469 498.132812 403.023438 C 498.1875 405.3125 498.160156 407.605469 498.046875 409.894531 C 497.933594 412.183594 497.734375 414.464844 497.453125 416.742188 C 497.171875 419.015625 496.808594 421.277344 496.363281 423.527344 C 495.917969 425.773438 495.386719 428.003906 494.777344 430.210938 C 494.167969 432.421875 493.476562 434.605469 492.707031 436.765625 C 491.9375 438.925781 491.089844 441.050781 490.160156 443.148438 C 489.234375 445.246094 488.234375 447.304688 487.15625 449.328125 C 486.078125 451.351562 484.929688 453.332031 483.703125 455.273438 C 482.480469 457.210938 481.191406 459.101562 479.828125 460.949219 C 478.46875 462.792969 477.039062 464.582031 475.546875 466.324219 C 474.054688 468.0625 472.5 469.746094 470.882812 471.371094 C 466.597656 475.753906 461.910156 479.652344 456.820312 483.070312 C 451.730469 486.484375 446.347656 489.347656 440.667969 491.65625 C 437.871094 492.847656 435.023438 493.894531 432.125 494.796875 C 429.222656 495.699219 426.285156 496.453125 423.304688 497.0625 C 420.328125 497.667969 417.328125 498.125 414.304688 498.429688 C 411.285156 498.734375 408.253906 498.886719 405.214844 498.886719 C 402.175781 498.886719 399.144531 498.734375 396.121094 498.429688 C 393.097656 498.125 390.097656 497.667969 387.121094 497.0625 C 384.144531 496.453125 381.207031 495.699219 378.304688 494.796875 C 375.40625 493.894531 372.554688 492.847656 369.761719 491.65625 C 368.011719 490.917969 366.285156 490.125 364.582031 489.28125 C 362.878906 488.4375 361.203125 487.542969 359.558594 486.597656 C 357.910156 485.652344 356.292969 484.65625 354.703125 483.613281 C 353.117188 482.570312 351.5625 481.476562 350.042969 480.339844 C 348.523438 479.203125 347.035156 478.019531 345.589844 476.789062 C 344.140625 475.5625 342.730469 474.289062 341.355469 472.976562 C 339.984375 471.660156 338.65625 470.304688 337.367188 468.910156 C 336.078125 467.515625 334.832031 466.082031 333.628906 464.609375 C 332.425781 463.140625 331.269531 461.632812 330.160156 460.09375 C 329.046875 458.550781 327.984375 456.976562 326.96875 455.371094 C 325.957031 453.765625 324.988281 452.132812 324.074219 450.464844 C 323.160156 448.800781 322.292969 447.109375 321.480469 445.394531 C 320.667969 443.675781 319.910156 441.9375 319.203125 440.171875 C 318.496094 438.410156 317.839844 436.628906 317.242188 434.824219 C 316.644531 433.019531 316.101562 431.203125 315.613281 429.367188 C 315.125 427.53125 314.691406 425.679688 314.316406 423.820312 C 313.941406 421.957031 313.621094 420.085938 313.359375 418.203125 C 313.097656 416.320312 312.894531 414.433594 312.746094 412.539062 C 312.597656 410.644531 312.507812 408.75 312.476562 406.847656 C 312.445312 404.949219 312.472656 403.050781 312.554688 401.152344 C 312.636719 399.253906 312.777344 397.359375 312.976562 395.472656 C 313.175781 393.582031 313.433594 391.699219 313.746094 389.828125 C 314.058594 387.953125 314.425781 386.089844 314.855469 384.238281 C 315.28125 382.386719 315.761719 380.550781 316.300781 378.730469 C 316.835938 376.90625 317.429688 375.101562 318.078125 373.316406 C 318.722656 371.53125 319.425781 369.765625 320.179688 368.023438 C 320.933594 366.277344 321.742188 364.558594 322.601562 362.867188 C 323.460938 361.171875 324.371094 359.503906 325.332031 357.867188 C 326.289062 356.226562 327.300781 354.617188 328.359375 353.039062 C 329.417969 351.460938 330.523438 349.917969 331.675781 348.40625 C 332.824219 346.898438 334.023438 345.421875 335.265625 343.984375 C 336.507812 342.546875 337.789062 341.148438 339.117188 339.789062 L 339.667969 339.238281 C 343.960938 334.90625 348.632812 331.035156 353.6875 327.621094 C 358.742188 324.207031 364.078125 321.316406 369.699219 318.953125 C 371.804688 318.078125 373.941406 317.285156 376.105469 316.570312 C 378.269531 315.851562 380.460938 315.21875 382.671875 314.664062 C 384.882812 314.109375 387.113281 313.640625 389.359375 313.25 C 391.605469 312.863281 393.863281 312.554688 396.132812 312.332031 C 398.402344 312.113281 400.675781 311.972656 402.957031 311.917969 C 405.234375 311.867188 407.515625 311.894531 409.792969 312.011719 C 412.070312 312.125 414.339844 312.324219 416.601562 312.605469 C 418.863281 312.886719 421.113281 313.253906 423.347656 313.703125 C 425.582031 314.148438 427.800781 314.679688 429.996094 315.292969 C 432.191406 315.90625 434.363281 316.597656 436.507812 317.371094 C 438.652344 318.144531 440.765625 318.992188 442.851562 319.921875 C 444.933594 320.851562 446.976562 321.855469 448.984375 322.9375 C 450.992188 324.015625 452.957031 325.167969 454.882812 326.394531 C 456.804688 327.621094 458.679688 328.914062 460.507812 330.277344 C 462.332031 331.644531 464.109375 333.074219 465.828125 334.566406 C 467.550781 336.0625 469.214844 337.621094 470.820312 339.238281 C 475.152344 343.636719 479.011719 348.414062 482.402344 353.570312 C 485.796875 358.726562 488.65625 364.164062 490.984375 369.878906 Z M 622.628906 379.195312 C 624.339844 379.191406 626.035156 379.355469 627.714844 379.691406 C 629.394531 380.027344 631.023438 380.527344 632.605469 381.191406 C 634.183594 381.851562 635.679688 382.667969 637.097656 383.632812 C 638.511719 384.59375 639.816406 385.691406 641.011719 386.917969 L 641.566406 387.410156 C 642.660156 388.625 643.636719 389.933594 644.492188 391.328125 C 645.347656 392.726562 646.070312 394.191406 646.65625 395.71875 C 647.242188 397.25 647.6875 398.820312 647.984375 400.429688 C 648.28125 402.042969 648.429688 403.664062 648.429688 405.304688 C 648.429688 407.011719 648.261719 408.707031 647.925781 410.382812 C 647.589844 412.058594 647.09375 413.683594 646.433594 415.261719 C 645.777344 416.839844 644.972656 418.335938 644.019531 419.757812 C 643.066406 421.175781 641.980469 422.484375 640.769531 423.691406 C 639.574219 424.917969 638.265625 426.011719 636.851562 426.976562 C 635.4375 427.941406 633.9375 428.753906 632.359375 429.417969 C 630.78125 430.082031 629.152344 430.582031 627.472656 430.917969 C 625.792969 431.253906 624.09375 431.417969 622.382812 431.410156 L 528.738281 431.410156 C 526.476562 442.066406 522.945312 452.28125 518.132812 462.054688 C 511.964844 474.257812 504.101562 485.25 494.539062 495.027344 C 488.671875 500.925781 482.289062 506.199219 475.390625 510.851562 C 468.492188 515.5 461.207031 519.441406 453.539062 522.667969 C 449.730469 524.261719 445.847656 525.664062 441.902344 526.871094 C 437.953125 528.082031 433.953125 529.09375 429.902344 529.90625 C 425.855469 530.71875 421.773438 531.328125 417.664062 531.738281 C 413.554688 532.144531 409.4375 532.351562 405.304688 532.351562 C 401.175781 532.351562 397.058594 532.144531 392.945312 531.738281 C 388.835938 531.328125 384.757812 530.71875 380.710938 529.90625 C 376.660156 529.09375 372.660156 528.082031 368.710938 526.871094 C 364.761719 525.664062 360.882812 524.261719 357.074219 522.667969 C 349.40625 519.441406 342.121094 515.5 335.222656 510.851562 C 328.324219 506.199219 321.941406 500.925781 316.074219 495.027344 C 311.753906 490.679688 307.773438 486.042969 304.128906 481.113281 C 300.484375 476.1875 297.214844 471.023438 294.320312 465.625 C 291.421875 460.222656 288.933594 454.640625 286.847656 448.878906 C 284.765625 443.113281 283.105469 437.230469 281.875 431.226562 L 188.046875 431.226562 C 186.332031 431.234375 184.636719 431.070312 182.957031 430.734375 C 181.277344 430.398438 179.648438 429.898438 178.070312 429.234375 C 176.488281 428.570312 174.992188 427.757812 173.578125 426.792969 C 172.160156 425.828125 170.855469 424.734375 169.660156 423.507812 L 168.925781 423.015625 C 167.847656 421.808594 166.886719 420.511719 166.046875 419.128906 C 165.203125 417.746094 164.496094 416.296875 163.917969 414.78125 C 163.34375 413.269531 162.910156 411.714844 162.617188 410.121094 C 162.328125 408.53125 162.179688 406.921875 162.183594 405.304688 C 162.183594 403.59375 162.351562 401.902344 162.6875 400.226562 C 163.023438 398.550781 163.519531 396.921875 164.179688 395.347656 C 164.835938 393.769531 165.640625 392.269531 166.59375 390.851562 C 167.546875 389.433594 168.632812 388.121094 169.84375 386.917969 C 171.039062 385.691406 172.34375 384.59375 173.761719 383.632812 C 175.175781 382.667969 176.675781 381.851562 178.253906 381.191406 C 179.832031 380.527344 181.460938 380.027344 183.140625 379.691406 C 184.820312 379.355469 186.519531 379.191406 188.230469 379.195312 L 281.875 379.195312 C 283.105469 373.191406 284.765625 367.308594 286.847656 361.546875 C 288.933594 355.785156 291.421875 350.203125 294.320312 344.800781 C 297.214844 339.398438 300.484375 334.234375 304.128906 329.308594 C 307.773438 324.382812 311.753906 319.746094 316.074219 315.398438 C 321.941406 309.5 328.324219 304.226562 335.222656 299.574219 C 342.121094 294.921875 349.40625 290.984375 357.074219 287.757812 C 360.882812 286.164062 364.761719 284.761719 368.710938 283.550781 C 372.660156 282.34375 376.660156 281.332031 380.710938 280.519531 C 384.757812 279.707031 388.835938 279.09375 392.945312 278.6875 C 397.058594 278.277344 401.175781 278.074219 405.304688 278.074219 C 409.4375 278.074219 413.554688 278.277344 417.664062 278.6875 C 421.773438 279.09375 425.855469 279.707031 429.902344 280.519531 C 433.953125 281.332031 437.953125 282.34375 441.902344 283.550781 C 445.847656 284.761719 449.730469 286.164062 453.539062 287.757812 C 461.207031 290.984375 468.492188 294.921875 475.390625 299.574219 C 482.289062 304.226562 488.671875 309.5 494.539062 315.398438 C 504.101562 325.175781 511.964844 336.164062 518.132812 348.371094 C 522.945312 358.140625 526.476562 368.355469 528.738281 379.011719 Z M 627.835938 399.847656 C 627.125 399.191406 626.324219 398.683594 625.425781 398.324219 C 624.527344 397.96875 623.59375 397.78125 622.628906 397.765625 L 521.074219 397.765625 C 520.523438 397.769531 519.976562 397.722656 519.433594 397.625 C 518.886719 397.527344 518.359375 397.378906 517.839844 397.183594 C 517.324219 396.992188 516.828125 396.75 516.355469 396.464844 C 515.882812 396.175781 515.441406 395.851562 515.027344 395.484375 C 514.617188 395.113281 514.242188 394.714844 513.902344 394.277344 C 513.5625 393.839844 513.269531 393.375 513.015625 392.886719 C 512.761719 392.394531 512.554688 391.882812 512.394531 391.355469 C 512.238281 390.824219 512.128906 390.285156 512.066406 389.738281 C 510.421875 378.109375 506.949219 367.058594 501.648438 356.582031 C 496.421875 346.113281 489.699219 336.71875 481.484375 328.390625 C 476.488281 323.371094 471.050781 318.890625 465.171875 314.9375 C 459.292969 310.988281 453.085938 307.648438 446.550781 304.917969 C 443.292969 303.566406 439.972656 302.375 436.59375 301.351562 C 433.214844 300.324219 429.796875 299.46875 426.335938 298.777344 C 422.871094 298.089844 419.382812 297.570312 415.871094 297.222656 C 412.359375 296.878906 408.835938 296.703125 405.304688 296.703125 C 401.777344 296.703125 398.253906 296.878906 394.742188 297.222656 C 391.230469 297.570312 387.742188 298.089844 384.277344 298.777344 C 380.816406 299.46875 377.398438 300.324219 374.019531 301.351562 C 370.640625 302.375 367.320312 303.566406 364.0625 304.917969 C 357.515625 307.625 351.300781 310.957031 345.421875 314.90625 C 339.539062 318.859375 334.109375 323.351562 329.128906 328.390625 C 320.917969 336.757812 314.136719 346.15625 308.78125 356.582031 C 303.796875 366.945312 300.445312 377.8125 298.730469 389.1875 C 298.675781 389.757812 298.574219 390.320312 298.417969 390.875 C 298.265625 391.429688 298.058594 391.964844 297.808594 392.480469 C 297.554688 392.996094 297.257812 393.484375 296.914062 393.949219 C 296.570312 394.410156 296.191406 394.835938 295.769531 395.230469 C 295.351562 395.621094 294.898438 395.972656 294.414062 396.28125 C 293.929688 396.59375 293.417969 396.855469 292.886719 397.074219 C 292.355469 397.289062 291.808594 397.457031 291.242188 397.570312 C 290.679688 397.6875 290.113281 397.753906 289.535156 397.765625 L 188.046875 397.765625 C 187.050781 397.777344 186.089844 397.960938 185.160156 398.320312 C 184.234375 398.679688 183.398438 399.1875 182.652344 399.847656 C 181.320312 401.425781 180.628906 403.242188 180.570312 405.304688 C 180.578125 406.242188 180.75 407.148438 181.085938 408.027344 C 181.425781 408.902344 181.90625 409.691406 182.53125 410.390625 L 182.53125 410.757812 C 183.273438 411.417969 184.113281 411.929688 185.039062 412.285156 C 185.96875 412.644531 186.929688 412.832031 187.925781 412.84375 L 289.535156 412.84375 C 290.089844 412.839844 290.636719 412.886719 291.179688 412.984375 C 291.726562 413.082031 292.253906 413.226562 292.773438 413.421875 C 293.289062 413.617188 293.785156 413.859375 294.257812 414.144531 C 294.730469 414.429688 295.171875 414.757812 295.585938 415.125 C 295.996094 415.492188 296.371094 415.894531 296.710938 416.332031 C 297.050781 416.769531 297.34375 417.230469 297.597656 417.722656 C 297.851562 418.214844 298.058594 418.722656 298.214844 419.253906 C 298.375 419.78125 298.484375 420.320312 298.546875 420.871094 C 300.179688 432.570312 303.589844 443.722656 308.78125 454.332031 C 314.136719 464.757812 320.917969 474.15625 329.128906 482.523438 C 334.109375 487.5625 339.539062 492.054688 345.421875 496.007812 C 351.300781 499.957031 357.515625 503.289062 364.0625 505.996094 C 367.320312 507.347656 370.640625 508.539062 374.019531 509.5625 C 377.398438 510.589844 380.816406 511.449219 384.277344 512.136719 C 387.742188 512.824219 391.230469 513.34375 394.742188 513.691406 C 398.253906 514.035156 401.777344 514.210938 405.304688 514.210938 C 408.835938 514.210938 412.359375 514.035156 415.871094 513.691406 C 419.382812 513.34375 422.871094 512.824219 426.335938 512.136719 C 429.796875 511.449219 433.214844 510.589844 436.59375 509.5625 C 439.972656 508.539062 443.292969 507.347656 446.550781 505.996094 C 453.085938 503.265625 459.292969 499.925781 465.171875 495.976562 C 471.050781 492.027344 476.488281 487.542969 481.484375 482.523438 C 485.566406 478.429688 489.300781 474.039062 492.6875 469.351562 C 496.070312 464.664062 499.066406 459.738281 501.667969 454.578125 C 504.269531 449.414062 506.449219 444.078125 508.203125 438.570312 C 509.957031 433.058594 511.265625 427.445312 512.128906 421.730469 C 512.175781 421.152344 512.273438 420.589844 512.421875 420.03125 C 512.574219 419.472656 512.773438 418.9375 513.023438 418.417969 C 513.273438 417.898438 513.570312 417.40625 513.914062 416.941406 C 514.253906 416.476562 514.636719 416.046875 515.058594 415.652344 C 515.480469 415.261719 515.933594 414.910156 516.421875 414.597656 C 516.910156 414.289062 517.417969 414.027344 517.957031 413.8125 C 518.492188 413.601562 519.042969 413.4375 519.605469 413.324219 C 520.171875 413.214844 520.746094 413.15625 521.320312 413.148438 L 622.566406 413.148438 C 623.542969 413.179688 624.484375 413.015625 625.390625 412.652344 C 626.296875 412.289062 627.089844 411.761719 627.777344 411.066406 C 628.484375 410.332031 629.039062 409.496094 629.429688 408.554688 C 629.820312 407.613281 630.027344 406.628906 630.042969 405.609375 C 630.035156 404.671875 629.863281 403.765625 629.527344 402.886719 C 629.1875 402.011719 628.707031 401.222656 628.082031 400.523438 Z M 627.835938 399.847656 " fill-opacity="1" fill-rule="nonzero"/></g></svg>