<svg version="1.1" id="Layer_1" xmlns="http://www.w3.org/2000/svg" xmlns:xlink="http://www.w3.org/1999/xlink" x="0px" y="0px"
	 width="100%" viewBox="0 0 512 512" enable-background="new 0 0 512 512" xml:space="preserve">
<path fill="#CC0D5A" opacity="1.000000" stroke="none" 
	d="
M289.000000,513.000000 
	C192.690048,513.000000 96.880096,513.000000 1.035069,513.000000 
	C1.035069,342.398346 1.035069,171.796707 1.035069,1.097524 
	C171.559967,1.097524 342.120026,1.097524 512.840027,1.097524 
	C512.840027,171.666550 512.840027,342.333252 512.840027,513.000000 
	C438.463348,513.000000 363.981659,513.000000 289.000000,513.000000 
M239.369186,283.055359 
	C238.276917,281.001190 237.037262,279.010223 236.123138,276.879608 
	C234.237213,272.483917 233.695343,266.035950 230.428467,264.102661 
	C226.799362,261.955048 220.751358,263.976501 215.754669,264.040680 
	C206.466873,264.160034 197.110077,263.495270 187.906509,264.409821 
	C176.694565,265.523926 165.618683,267.978180 154.468735,269.757507 
	C148.961227,270.636444 146.499557,273.705963 146.653976,279.127777 
	C146.838394,285.602722 146.951965,292.104980 146.582794,298.566101 
	C144.858963,328.736786 151.006424,356.660736 168.668533,381.768860 
	C181.655945,400.231537 197.126892,414.843109 219.378967,421.702820 
	C244.733459,429.518921 269.922394,433.407501 295.646423,423.903137 
	C300.323883,422.174957 305.060303,420.592224 309.674805,418.710175 
	C331.353363,409.868317 349.995789,396.827667 358.725006,374.472687 
	C365.144592,358.032562 369.831696,340.585144 372.623566,323.159271 
	C375.049286,308.018799 373.751099,292.279236 374.060547,276.803711 
	C374.143738,272.643005 374.492950,268.419556 373.889832,264.347870 
	C373.659851,262.795227 371.078583,260.383118 369.605133,260.409241 
	C354.817200,260.671600 340.040741,261.524323 325.253082,261.875519 
	C313.959717,262.143707 302.654938,261.928833 291.257843,261.928833 
	C290.235077,275.741882 283.187622,285.306885 273.709869,293.512238 
	C270.047821,296.682648 265.856140,297.939941 261.189606,296.998779 
	C252.428406,295.231812 244.801987,291.502136 239.369186,283.055359 
M231.071075,227.586182 
	C233.759369,224.523148 236.849991,221.718536 239.027939,218.327713 
	C241.422058,214.600327 243.148880,210.405045 244.858322,206.285767 
	C247.906296,198.940994 251.503845,191.701920 253.478485,184.058746 
	C258.046631,166.376892 249.195892,151.668991 231.860733,146.654648 
	C231.160843,146.452194 230.539719,145.977448 229.726974,145.547638 
	C231.379379,143.011108 232.909454,140.835785 234.263672,138.555984 
	C244.633469,121.098717 238.801620,99.521904 220.732819,92.184433 
	C196.011032,82.145302 170.772018,81.939758 145.760910,91.660805 
	C144.002014,92.344429 142.013962,95.193764 141.960159,97.087959 
	C141.340881,118.882629 140.781754,140.687592 140.799530,162.489334 
	C140.816757,183.629089 141.384323,204.772461 142.018524,225.904999 
	C142.191422,231.665802 143.127579,237.474487 144.438385,243.092041 
	C144.898911,245.065659 147.372101,247.792618 149.196274,248.021225 
	C159.035110,249.254211 169.088394,251.207245 178.825867,250.304230 
	C198.201187,248.507431 214.625885,238.618607 231.071075,227.586182 
M269.167969,153.420959 
	C269.831665,166.396484 270.335632,179.382645 271.199371,192.344849 
	C272.284180,208.624527 273.690002,224.882645 274.897400,241.154510 
	C275.194427,245.157532 277.109192,246.394623 281.116058,246.245575 
	C305.248779,245.348007 329.392731,244.753204 353.526031,243.869446 
	C356.954193,243.743896 360.499573,243.017365 363.718964,241.831329 
	C369.389069,239.742447 370.262054,237.337585 368.530243,231.524612 
	C368.208374,230.444214 368.181091,229.246826 368.182648,228.103668 
	C368.203033,213.296371 368.262207,198.489105 368.273560,183.681824 
	C368.274261,182.782013 367.954315,181.881989 367.777985,180.952789 
	C355.169617,183.006363 342.853668,184.810745 330.628418,187.099533 
	C325.509766,188.057831 324.664764,184.847809 323.646454,181.438858 
	C322.458801,177.462967 325.650848,177.412964 327.983368,177.138306 
	C333.096191,176.536270 338.240295,176.016251 343.382263,175.888123 
	C351.485626,175.686234 359.597748,175.834427 368.299744,175.834427 
	C367.532043,157.368103 366.776398,139.192047 366.006409,120.671425 
	C353.049805,122.192535 340.830170,123.703629 328.589996,125.024323 
	C324.060974,125.512993 321.253021,123.136345 321.175385,119.051041 
	C321.088196,114.464348 325.120972,115.330238 327.408478,115.255424 
	C337.528046,114.924469 347.664917,115.053413 357.794373,115.144920 
	C360.208252,115.166733 362.617584,115.685493 365.550903,116.038483 
	C364.519928,107.697639 363.566223,99.973831 362.610107,92.250328 
	C362.185089,88.816780 360.158325,87.344215 356.795563,87.509209 
	C355.465729,87.574448 354.130341,87.576714 352.806244,87.700958 
	C327.282990,90.096008 301.787720,92.895821 276.220245,94.637726 
	C269.781372,95.076408 269.292206,97.916870 269.273193,102.476891 
	C269.203705,119.131035 269.195526,135.785446 269.167969,153.420959 
z"/>
<path fill="#FFFEFE" opacity="1.000000" stroke="none" 
	d="
M239.594574,283.340271 
	C244.801987,291.502136 252.428406,295.231812 261.189606,296.998779 
	C265.856140,297.939941 270.047821,296.682648 273.709869,293.512238 
	C283.187622,285.306885 290.235077,275.741882 291.257843,261.928833 
	C302.654938,261.928833 313.959717,262.143707 325.253082,261.875519 
	C340.040741,261.524323 354.817200,260.671600 369.605133,260.409241 
	C371.078583,260.383118 373.659851,262.795227 373.889832,264.347870 
	C374.492950,268.419556 374.143738,272.643005 374.060547,276.803711 
	C373.751099,292.279236 375.049286,308.018799 372.623566,323.159271 
	C369.831696,340.585144 365.144592,358.032562 358.725006,374.472687 
	C349.995789,396.827667 331.353363,409.868317 309.674805,418.710175 
	C305.060303,420.592224 300.323883,422.174957 295.646423,423.903137 
	C269.922394,433.407501 244.733459,429.518921 219.378967,421.702820 
	C197.126892,414.843109 181.655945,400.231537 168.668533,381.768860 
	C151.006424,356.660736 144.858963,328.736786 146.582794,298.566101 
	C146.951965,292.104980 146.838394,285.602722 146.653976,279.127777 
	C146.499557,273.705963 148.961227,270.636444 154.468735,269.757507 
	C165.618683,267.978180 176.694565,265.523926 187.906509,264.409821 
	C197.110077,263.495270 206.466873,264.160034 215.754669,264.040680 
	C220.751358,263.976501 226.799362,261.955048 230.428467,264.102661 
	C233.695343,266.035950 234.237213,272.483917 236.123138,276.879608 
	C237.037262,279.010223 238.276917,281.001190 239.594574,283.340271 
M302.415161,370.009583 
	C300.263550,368.956421 298.169189,367.207825 295.945923,367.024872 
	C293.117889,366.792084 291.269318,368.469421 289.716827,371.528534 
	C284.911072,380.997894 279.160828,390.401947 266.820160,390.355499 
	C252.966431,390.303345 239.743927,387.519897 229.190338,377.307922 
	C227.816299,375.978424 225.536255,375.585205 223.675858,374.758301 
	C223.281387,375.182648 222.886917,375.606964 222.492462,376.031281 
	C223.230728,378.479889 223.623489,381.104340 224.765305,383.347534 
	C230.640366,394.890015 240.782928,400.469177 252.892960,403.623871 
	C279.532257,410.563416 298.633911,393.155701 302.415161,370.009583 
z"/>
<path fill="#FFFEFE" opacity="1.000000" stroke="none" 
	d="
M230.787537,227.809052 
	C214.625885,238.618607 198.201187,248.507431 178.825867,250.304230 
	C169.088394,251.207245 159.035110,249.254211 149.196274,248.021225 
	C147.372101,247.792618 144.898911,245.065659 144.438385,243.092041 
	C143.127579,237.474487 142.191422,231.665802 142.018524,225.904999 
	C141.384323,204.772461 140.816757,183.629089 140.799530,162.489334 
	C140.781754,140.687592 141.340881,118.882629 141.960159,97.087959 
	C142.013962,95.193764 144.002014,92.344429 145.760910,91.660805 
	C170.772018,81.939758 196.011032,82.145302 220.732819,92.184433 
	C238.801620,99.521904 244.633469,121.098717 234.263672,138.555984 
	C232.909454,140.835785 231.379379,143.011108 229.726974,145.547638 
	C230.539719,145.977448 231.160843,146.452194 231.860733,146.654648 
	C249.195892,151.668991 258.046631,166.376892 253.478485,184.058746 
	C251.503845,191.701920 247.906296,198.940994 244.858322,206.285767 
	C243.148880,210.405045 241.422058,214.600327 239.027939,218.327713 
	C236.849991,221.718536 233.759369,224.523148 230.787537,227.809052 
M190.372940,182.947922 
	C187.778488,183.523743 185.125244,183.920822 182.613159,184.747055 
	C181.256943,185.193130 180.142075,186.373016 178.918320,187.221832 
	C180.323425,188.125778 181.717911,189.794128 183.135284,189.813782 
	C195.437607,189.984497 207.744476,189.906296 220.048889,189.786697 
	C222.896286,189.759018 225.460678,185.181122 224.934921,181.300812 
	C224.456329,177.768478 221.831726,177.847229 219.255783,178.255264 
	C209.901123,179.737076 200.559387,181.300583 190.372940,182.947922 
M192.215073,128.110184 
	C199.321091,128.464233 206.424179,128.941193 213.534607,129.111099 
	C216.335236,129.178024 219.350281,124.589790 218.203873,121.353477 
	C217.700546,119.932571 214.842468,118.453751 213.104645,118.512474 
	C204.331100,118.808891 195.566391,119.509338 186.814819,120.258057 
	C181.651047,120.699829 176.517471,121.494637 171.370331,122.130669 
	C171.243652,122.799965 171.116989,123.469261 170.990326,124.138557 
	C172.641556,124.968697 174.222610,126.287735 175.957275,126.536758 
	C181.038803,127.266228 186.181473,127.569687 192.215073,128.110184 
z"/>
<path fill="#FFFEFE" opacity="1.000000" stroke="none" 
	d="
M269.166107,152.930359 
	C269.195526,135.785446 269.203705,119.131035 269.273193,102.476891 
	C269.292206,97.916870 269.781372,95.076408 276.220245,94.637726 
	C301.787720,92.895821 327.282990,90.096008 352.806244,87.700958 
	C354.130341,87.576714 355.465729,87.574448 356.795563,87.509209 
	C360.158325,87.344215 362.185089,88.816780 362.610107,92.250328 
	C363.566223,99.973831 364.519928,107.697639 365.550903,116.038483 
	C362.617584,115.685493 360.208252,115.166733 357.794373,115.144920 
	C347.664917,115.053413 337.528046,114.924469 327.408478,115.255424 
	C325.120972,115.330238 321.088196,114.464348 321.175385,119.051041 
	C321.253021,123.136345 324.060974,125.512993 328.589996,125.024323 
	C340.830170,123.703629 353.049805,122.192535 366.006409,120.671425 
	C366.776398,139.192047 367.532043,157.368103 368.299744,175.834427 
	C359.597748,175.834427 351.485626,175.686234 343.382263,175.888123 
	C338.240295,176.016251 333.096191,176.536270 327.983368,177.138306 
	C325.650848,177.412964 322.458801,177.462967 323.646454,181.438858 
	C324.664764,184.847809 325.509766,188.057831 330.628418,187.099533 
	C342.853668,184.810745 355.169617,183.006363 367.777985,180.952789 
	C367.954315,181.881989 368.274261,182.782013 368.273560,183.681824 
	C368.262207,198.489105 368.203033,213.296371 368.182648,228.103668 
	C368.181091,229.246826 368.208374,230.444214 368.530243,231.524612 
	C370.262054,237.337585 369.389069,239.742447 363.718964,241.831329 
	C360.499573,243.017365 356.954193,243.743896 353.526031,243.869446 
	C329.392731,244.753204 305.248779,245.348007 281.116058,246.245575 
	C277.109192,246.394623 275.194427,245.157532 274.897400,241.154510 
	C273.690002,224.882645 272.284180,208.624527 271.199371,192.344849 
	C270.335632,179.382645 269.831665,166.396484 269.166107,152.930359 
z"/>
<path fill="#CD125D" opacity="1.000000" stroke="none" 
	d="
M302.434570,370.386322 
	C298.633911,393.155701 279.532257,410.563416 252.892960,403.623871 
	C240.782928,400.469177 230.640366,394.890015 224.765305,383.347534 
	C223.623489,381.104340 223.230728,378.479889 222.492462,376.031281 
	C222.886917,375.606964 223.281387,375.182648 223.675858,374.758301 
	C225.536255,375.585205 227.816299,375.978424 229.190338,377.307922 
	C239.743927,387.519897 252.966431,390.303345 266.820160,390.355499 
	C279.160828,390.401947 284.911072,380.997894 289.716827,371.528534 
	C291.269318,368.469421 293.117889,366.792084 295.945923,367.024872 
	C298.169189,367.207825 300.263550,368.956421 302.434570,370.386322 
z"/>
<path fill="#CF1A63" opacity="1.000000" stroke="none" 
	d="
M190.792862,182.890594 
	C200.559387,181.300583 209.901123,179.737076 219.255783,178.255264 
	C221.831726,177.847229 224.456329,177.768478 224.934921,181.300812 
	C225.460678,185.181122 222.896286,189.759018 220.048889,189.786697 
	C207.744476,189.906296 195.437607,189.984497 183.135284,189.813782 
	C181.717911,189.794128 180.323425,188.125778 178.918320,187.221832 
	C180.142075,186.373016 181.256943,185.193130 182.613159,184.747055 
	C185.125244,183.920822 187.778488,183.523743 190.792862,182.890594 
z"/>
<path fill="#CE1660" opacity="1.000000" stroke="none" 
	d="
M191.757629,128.075104 
	C186.181473,127.569687 181.038803,127.266228 175.957275,126.536758 
	C174.222610,126.287735 172.641556,124.968697 170.990326,124.138557 
	C171.116989,123.469261 171.243652,122.799965 171.370331,122.130669 
	C176.517471,121.494637 181.651047,120.699829 186.814819,120.258057 
	C195.566391,119.509338 204.331100,118.808891 213.104645,118.512474 
	C214.842468,118.453751 217.700546,119.932571 218.203873,121.353477 
	C219.350281,124.589790 216.335236,129.178024 213.534607,129.111099 
	C206.424179,128.941193 199.321091,128.464233 191.757629,128.075104 
z"/>
</svg>