<svg xmlns="http://www.w3.org/2000/svg" xmlns:xlink="http://www.w3.org/1999/xlink" width="1080" zoomAndPan="magnify" viewBox="0 0 810 809.999993" height="1080" preserveAspectRatio="xMidYMid meet" version="1.0"><defs><clipPath id="35c0168146"><path d="M 241 133.445312 L 568 133.445312 L 568 285 L 241 285 Z M 241 133.445312 " clip-rule="nonzero"/></clipPath><clipPath id="9e1da1eb95"><path d="M 335 538 L 474 538 L 474 676.445312 L 335 676.445312 Z M 335 538 " clip-rule="nonzero"/></clipPath></defs><rect x="-81" width="972" fill="#ffffff" y="-80.999999" height="971.999992" fill-opacity="1"/><rect x="-81" width="972" fill="#edecff" y="-80.999999" height="971.999992" fill-opacity="1"/><path fill="#7137ff" d="M 404.703125 374.574219 C 442.671875 374.574219 473.488281 343.753906 473.488281 305.789062 C 473.488281 267.828125 442.671875 237.003906 404.703125 237.003906 C 366.738281 237.003906 335.917969 267.828125 335.917969 305.789062 C 335.917969 343.753906 366.738281 374.574219 404.703125 374.574219 Z M 404.703125 357.679688 C 376.0625 357.679688 352.8125 334.429688 352.8125 305.789062 C 352.8125 277.152344 376.0625 253.902344 404.703125 253.902344 C 433.339844 253.902344 456.597656 277.152344 456.597656 305.789062 C 456.597656 334.429688 433.339844 357.679688 404.703125 357.679688 Z M 404.703125 357.679688 " fill-opacity="1" fill-rule="evenodd"/><path fill="#7137ff" d="M 250.238281 284.210938 L 310.574219 284.210938 C 315.238281 284.210938 319.023438 280.421875 319.023438 275.765625 C 319.023438 271.101562 315.238281 267.316406 310.574219 267.316406 L 250.238281 267.316406 C 245.578125 267.316406 241.789062 271.101562 241.789062 275.765625 C 241.789062 280.421875 245.578125 284.210938 250.238281 284.210938 Z M 250.238281 284.210938 " fill-opacity="1" fill-rule="evenodd"/><path fill="#7137ff" d="M 498.832031 284.210938 L 559.167969 284.210938 C 563.832031 284.210938 567.617188 280.421875 567.617188 275.765625 C 567.617188 271.101562 563.832031 267.316406 559.167969 267.316406 L 498.832031 267.316406 C 494.171875 267.316406 490.382812 271.101562 490.382812 275.765625 C 490.382812 280.421875 494.171875 284.210938 498.832031 284.210938 Z M 498.832031 284.210938 " fill-opacity="1" fill-rule="evenodd"/><g clip-path="url(#35c0168146)"><path fill="#7137ff" d="M 255.757812 282.15625 C 255.757812 282.15625 377.140625 177.332031 404.703125 153.527344 C 404.703125 153.527344 553.652344 282.15625 553.652344 282.15625 C 557.179688 285.203125 562.519531 284.8125 565.566406 281.285156 C 568.613281 277.753906 568.21875 272.417969 564.691406 269.371094 L 410.222656 135.96875 C 407.054688 133.230469 402.355469 133.230469 399.1875 135.96875 L 244.714844 269.371094 C 241.1875 272.417969 240.796875 277.753906 243.84375 281.285156 C 246.890625 284.8125 252.230469 285.203125 255.757812 282.15625 Z M 255.757812 282.15625 " fill-opacity="1" fill-rule="evenodd"/></g><g clip-path="url(#9e1da1eb95)"><path fill="#7137ff" d="M 404.703125 676.269531 C 442.671875 676.269531 473.488281 645.449219 473.488281 607.484375 C 473.488281 569.515625 442.671875 538.691406 404.703125 538.691406 C 366.738281 538.691406 335.917969 569.515625 335.917969 607.484375 C 335.917969 645.449219 366.738281 676.269531 404.703125 676.269531 Z M 404.703125 659.375 C 376.0625 659.375 352.8125 636.125 352.8125 607.484375 C 352.8125 578.839844 376.0625 555.589844 404.703125 555.589844 C 433.339844 555.589844 456.597656 578.839844 456.597656 607.484375 C 456.597656 636.125 433.339844 659.375 404.703125 659.375 Z M 404.703125 659.375 " fill-opacity="1" fill-rule="evenodd"/></g><path fill="#7137ff" d="M 396.253906 366.128906 L 396.253906 547.140625 C 396.253906 551.804688 400.042969 555.589844 404.703125 555.589844 C 409.367188 555.589844 413.148438 551.804688 413.148438 547.140625 L 413.148438 366.128906 C 413.148438 361.464844 409.367188 357.679688 404.703125 357.679688 C 400.042969 357.679688 396.253906 361.464844 396.253906 366.128906 Z M 396.253906 366.128906 " fill-opacity="1" fill-rule="evenodd"/><path fill="#7137ff" d="M 302.125 275.765625 L 302.125 471.859375 C 302.125 476.523438 305.914062 480.308594 310.574219 480.308594 C 315.238281 480.308594 319.023438 476.523438 319.023438 471.859375 L 319.023438 275.765625 C 319.023438 271.101562 315.238281 267.316406 310.574219 267.316406 C 305.914062 267.316406 302.125 271.101562 302.125 275.765625 Z M 302.125 275.765625 " fill-opacity="1" fill-rule="evenodd"/><path fill="#7137ff" d="M 490.382812 275.765625 L 490.382812 471.859375 C 490.382812 476.523438 494.171875 480.308594 498.832031 480.308594 C 503.496094 480.308594 507.277344 476.523438 507.277344 471.859375 L 507.277344 275.765625 C 507.277344 271.101562 503.496094 267.316406 498.832031 267.316406 C 494.171875 267.316406 490.382812 271.101562 490.382812 275.765625 Z M 490.382812 275.765625 " fill-opacity="1" fill-rule="evenodd"/></svg>